<svg xmlns="http://www.w3.org/2000/svg" width="800" height="400"><g fill="#CA2F92"><path d="M0 0v400h800v-400h-800zm128.5 160.7h15.7v31.4h-15.7v-31.4zm15.7 157.1h-15.7v-31.4h15.7v31.4zm15.7-47.1h-47.1v-62.8h47.1v62.8zm15.7-47.1h15.7l-15.7 31.4v-31.4zm15.8 31.4l15.7-31.4h31.4l-15.7 31.4h-31.4zm47.1 0l4.3-8.6c1.2 3 2.5 5.9 4.1 8.6h-8.4zm94.2 0h-15.7v-31.4h15.7v31.4zm31.5 15.7l-15.8-15.7v-31.4l15.7-15.7v62.8zm15.7-29.9c0-8.7 2.3-16.8 6.2-23.9l19.9 34.4c4 8.5 12.6 14.4 22.6 14.4 2.3 0 4.6-.3 6.7-.9l-14 24.2c-23.5-3.5-41.4-23.7-41.4-48.2zm50.8-24.8c-.7-.1-1.4-.1-2.2-.1-11.6 0-21.4 8-24.1 18.7l-13.9-24.1c8.9-11.2 22.7-18.3 38.1-18.3 17.8 0 33.4 9.6 41.9 23.9h-39.8zm15.6 24.8c0 9.8-7.9 17.7-17.7 17.7s-17.7-7.9-17.7-17.7 7.9-17.7 17.7-17.7 17.7 8 17.7 17.7zm-17.2 48.7l19.9-34.5c2.8-4 4.4-8.9 4.4-14.2 0-7-2.9-13.3-7.5-17.8h27.9c2.2 5.5 3.4 11.5 3.4 17.8.1 26.8-21.4 48.4-48.1 48.7zm155-65.9c0 17.4-14.1 31.4-31.4 31.4h-47.1l-15.7 15.7v-62.8l15.7 15.7h15.7c8.7 0 15.7-7 15.7-15.7v-62.8c0-9.2-3.1-15.7-15.7-15.7h-204.2c-9.9 0-15.7 4.7-15.7 15.7v125.7c-26 0-47.1-21.1-47.1-47.1v-110c0-26 21.1-47.1 47.1-47.1h219.9c34.7 0 62.8 28.1 62.8 62.8v94.2zM521.2 97.9h-204.2c-4.3 0-7.9 3.5-7.9 7.9 0 4.3 3.5 7.9 7.9 7.9h204.2c4.3 0 7.9-3.5 7.9-7.9s-3.5-7.9-7.9-7.9z"/></g></svg>