<?xml version="1.0" encoding="utf-8"?>
<!-- Generator: Adobe Illustrator 14.0.0, SVG Export Plug-In . SVG Version: 6.00 Build 43363)  -->
<!DOCTYPE svg PUBLIC "-//W3C//DTD SVG 1.1//EN" "http://www.w3.org/Graphics/SVG/1.1/DTD/svg11.dtd">
<svg version="1.1" id="Layer_1" xmlns="http://www.w3.org/2000/svg" xmlns:xlink="http://www.w3.org/1999/xlink" x="0px" y="0px"
	 width="216px" height="216px" viewBox="0 0 216 216" enable-background="new 0 0 216 216" xml:space="preserve">
<path fill-rule="evenodd" clip-rule="evenodd" d="M181.593,35.999L216,0.077l-35.948,34.38l-7.699-7.694
	c-6.236-6.235-16.353-6.235-22.599,0l-16.951,16.952c-6.246,6.245-6.246,16.363,0,22.609l6.811,6.81l-13.48,12.893l-6.522-6.521
	c-6.237-6.235-16.354-6.235-22.6,0L80.06,96.458c-6.246,6.246-6.246,16.365,0,22.611l5.636,5.635l-13.48,12.891l-5.348-5.344
	c-6.237-6.236-16.353-6.236-22.599,0l-16.952,16.951c-6.246,6.246-6.246,16.365,0,22.611l4.458,4.459L0,206.662l9.26,9.262
	l30.415-31.752l4.593,4.59c6.246,6.242,16.362,6.242,22.599,0l16.96-16.949c6.235-6.246,6.235-16.365,0-22.611l-5.444-5.443
	l12.899-13.469l5.729,5.73c6.246,6.246,16.362,6.246,22.6,0l16.96-16.951c6.237-6.246,6.237-16.365,0-22.611l-6.583-6.58
	l12.9-13.468l6.866,6.864c6.246,6.246,16.362,6.246,22.599,0l16.961-16.949c6.237-6.246,6.237-16.364,0-22.609L181.593,35.999z"/>
</svg>
