<?xml version="1.0" encoding="utf-8"?>
<!-- Generator: Adobe Illustrator 14.0.0, SVG Export Plug-In . SVG Version: 6.00 Build 43363)  -->
<!DOCTYPE svg PUBLIC "-//W3C//DTD SVG 1.1//EN" "http://www.w3.org/Graphics/SVG/1.1/DTD/svg11.dtd">
<svg version="1.1" id="Layer_1" xmlns="http://www.w3.org/2000/svg" xmlns:xlink="http://www.w3.org/1999/xlink" x="0px" y="0px"
	 width="864px" height="864px" viewBox="0 0 864 864" enable-background="new 0 0 864 864" xml:space="preserve">
<g>
	<path stroke="#FFFFFF" d="M432,0C193.413,0,0,193.413,0,432c0,238.586,193.413,432,432,432c238.588,0,432-193.414,432-432
		C864,193.413,670.588,0,432,0z M702.467,702.469C630.223,774.713,534.17,814.5,432.001,814.5
		c-102.17,0-198.225-39.787-270.469-112.031C89.287,630.225,49.5,534.17,49.5,432s39.787-198.224,112.032-270.469
		C233.776,89.287,329.832,49.5,432.001,49.5c102.168,0,198.223,39.787,270.465,112.031C774.713,233.776,814.5,329.831,814.5,432
		C814.5,534.17,774.713,630.225,702.467,702.469z"/>
	<path stroke="#FFFFFF" d="M501.12,271.475c-10.04-8.65-20.871-14.966-32.49-18.945c-11.622-3.979-23.179-5.968-34.67-5.968
		c-14.777,0-28.355,2.969-40.733,8.904c-0.756,8.463-1.358,16.832-1.799,25.102c-0.444,8.273-0.759,16.861-0.946,25.765
		c-0.19,8.905-0.284,22.64-0.284,41.206c0,40.67,0.378,76.729,1.137,108.179c3.661,1.392,8.492,2.968,14.492,4.734
		c5.999,1.772,12.22,3.158,18.661,4.169c6.442,1.014,12.315,1.515,17.619,1.515c12.629,0,24.597-2.587,35.902-7.767
		c11.301-5.177,21.219-12.598,29.744-22.26c8.525-9.664,15.186-21.315,19.987-34.956c4.798-13.641,7.198-28.669,7.198-45.089
		c0-19.449-3.126-36.248-9.378-50.395C519.308,291.527,511.162,280.128,501.12,271.475z"/>
	<path stroke="#FFFFFF" d="M432.001,58.5C226.052,58.5,58.5,226.052,58.5,432s167.552,373.5,373.501,373.5
		C637.949,805.5,805.5,637.948,805.5,432S637.949,58.5,432.001,58.5z M425.783,642.132c-3.158-0.255-6.158-0.507-8.999-0.756
		c-2.842-0.255-6.602-0.507-11.273-0.759c-5.432-0.252-16.419-0.378-32.965-0.378c-7.074,0-15.346,0.316-24.817,0.946
		c-9.473,0.63-14.275,0.946-14.398,0.946h-19.784l3-7.403c9.976-2.903,25.293-6.677,27.946-8.32
		c2.651-1.641,4.356-3.788,5.115-6.442c1.767-6.439,2.651-29.174,2.651-68.203c0-1.564-0.306-18.791-0.912-51.63
		c1.055-0.012,2.115-0.023,3.159-0.033c6.775-0.063,14.577-0.096,23.187-0.096c2.427,0,6.097,0.064,10.957,0.191
		c0.002,14.463,0.064,26.861,0.189,37.171v16.292l0.379,29.177c0.502,21.724,1.261,34.102,2.273,37.131
		c2.903,7.834,14.332,14.748,34.291,14.748V642.132z M568.375,413.186c-9.787,19.134-25.641,34.954-47.551,47.458
		c-20.938,11.944-54.158,18.8-79.734,18.8c-1.195,0-2.372-0.015-3.531-0.044c-12.036-0.313-7.453-0.316-25.007-0.946
		c-17.556-0.633-29.174-0.949-34.857-0.949c-8.716,0-16.516,0.032-23.398,0.097c-6.886,0.064-14.052,0.158-21.502,0.284h-11.747
		l1.5-8.162c9.473-0.381,16.071-3.173,19.797-5.385c3.724-2.209,6.281-7.482,7.673-15.82c1.389-8.335,2.084-22.228,2.084-41.679
		v-25.576c0-10.86-0.223-27.186-0.664-48.973c-0.444-21.787-0.979-36.911-1.61-45.374c-0.886-11.87-1.865-20.049-2.937-24.534
		c-1.075-4.482-4.626-9.108-7.657-10.878c-3.031-1.767-20.462-4.466-28.293-5.099l-1.5-7.61l67.731-1.137
		c5.177-0.124,19.465-0.788,33.864-1.989c14.398-1.198,24.628-1.799,30.692-1.799c20.711,0,39.657,2.969,56.834,8.904
		c17.176,5.938,32.142,14.336,44.9,25.198c12.756,10.864,22.545,23.681,29.365,38.458s10.23,30.946,10.23,48.5
		C583.059,374.632,578.162,394.05,568.375,413.186z"/>
</g>
</svg>
