<?xml version="1.0" encoding="utf-8"?>
<!-- Generator: Adobe Illustrator 14.0.0, SVG Export Plug-In . SVG Version: 6.00 Build 43363)  -->
<!DOCTYPE svg PUBLIC "-//W3C//DTD SVG 1.1//EN" "http://www.w3.org/Graphics/SVG/1.1/DTD/svg11.dtd">
<svg version="1.1" id="Layer_1" xmlns="http://www.w3.org/2000/svg" xmlns:xlink="http://www.w3.org/1999/xlink" x="0px" y="0px"
	 width="216px" height="216px" viewBox="0 0 216 216" enable-background="new 0 0 216 216" xml:space="preserve">
<g>
	<g>
		<g>
			<path d="M136.709,39.297L85.287,90.719c-14.363,14.364-17.325,35.867-8.91,53.189l15.897-15.897
				c-1.381-8.115,1.046-16.758,7.297-23.008l51.421-51.421c10.238-10.239,26.898-10.239,37.137,0
				c10.239,10.239,10.239,26.898,0,37.138l-51.42,51.422c-6.251,6.25-14.895,8.677-23.01,7.296l-15.896,15.896
				c17.323,8.417,38.825,5.455,53.189-8.909l51.421-51.421c18.115-18.116,18.115-47.59,0-65.705
				C184.299,21.182,154.823,21.182,136.709,39.297z"/>
		</g>
	</g>
	<g>
		<path d="M130.713,125.282c14.364-14.364,17.326-35.867,8.909-53.189l-15.896,15.896c1.382,8.115-1.046,16.757-7.297,23.009
			L65.008,162.42c-10.239,10.238-26.898,10.238-37.138,0c-10.239-10.239-10.239-26.898,0-37.138L79.292,73.86
			c6.251-6.251,14.894-8.678,23.009-7.297l15.897-15.896c-17.322-8.416-38.826-5.454-53.189,8.91l-51.421,51.421
			c-18.115,18.115-18.115,47.591,0,65.706c18.115,18.113,47.59,18.113,65.705,0L130.713,125.282z"/>
	</g>
</g>
</svg>
