<?xml version="1.0" encoding="utf-8"?>
<!-- Generator: Adobe Illustrator 14.0.0, SVG Export Plug-In . SVG Version: 6.00 Build 43363)  -->
<!DOCTYPE svg PUBLIC "-//W3C//DTD SVG 1.1//EN" "http://www.w3.org/Graphics/SVG/1.1/DTD/svg11.dtd">
<svg version="1.1" id="Layer_1" xmlns="http://www.w3.org/2000/svg" xmlns:xlink="http://www.w3.org/1999/xlink" x="0px" y="0px"
	 width="215.989px" height="215.989px" viewBox="0 0 215.989 215.989" enable-background="new 0 0 215.989 215.989"
	 xml:space="preserve">
<path d="M154.004,11.441c0,0-0.357-0.197-0.994-0.523c-15.647-8.514-31.254-11.149-45.015-10.909
	C94.232-0.231,78.627,2.404,62.979,10.918c-0.636,0.326-0.994,0.523-0.994,0.523l-34.662,97.403
	c33.335,27.247,49.912,53.546,55.078,107.151h19.895v-97.988c-8.003-2.439-13.828-9.876-13.828-18.678
	c0-10.784,8.743-19.527,19.528-19.527s19.528,8.743,19.528,19.527c0,8.802-5.825,16.238-13.829,18.678v97.988h19.895
	c5.166-53.604,21.742-79.904,55.078-107.151L154.004,11.441z"/>
</svg>
